<svg id="visual" viewBox="0 0 1920 1080" width="1920" height="1080" xmlns="http://www.w3.org/2000/svg">
  <rect x="0" y="0" width="1920" height="1080" fill="#001220"></rect>
  <defs>
    <linearGradient id="grad1_0" x1="43.8%" y1="0%" x2="100%" y2="100%">
      <stop offset="14.444444444444446%" stop-color="#001220" stop-opacity="1"></stop>
      <stop offset="85.55555555555554%" stop-color="#001220" stop-opacity="1"></stop>
    </linearGradient>
  </defs>
  <defs>
    <linearGradient id="grad2_0" x1="0%" y1="0%" x2="56.3%" y2="100%">
      <stop offset="14.444444444444446%" stop-color="#001220" stop-opacity="1"></stop>
      <stop offset="85.55555555555554%" stop-color="#001220" stop-opacity="1"></stop>
    </linearGradient>
  </defs>
  <g transform="translate(1920, 0)">
    <path d="M0 864C-83.4 840.6 -166.9 817.2 -259.6 798.9C-352.3 780.6 -454.3 767.5 -507.8 699C-561.4 630.5 -566.6 506.6 -573.6 416.7C-580.6 326.9 -589.5 271.1 -638.2 207.4C-686.9 143.6 -775.4 71.8 -864 0L0 0Z" fill="#FBAE3C"></path>
  </g>
  <g transform="translate(0, 1080)">
    <path d="M0 -864C90.2 -839.8 180.4 -815.6 248.8 -765.6C317.2 -715.6 363.8 -639.8 430.3 -592.2C496.7 -544.6 583 -525 656.1 -476.7C729.2 -428.4 789.3 -351.2 821.7 -267C854.2 -182.7 859.1 -91.4 864 0L0 0Z" fill="#FBAE3C"></path>
  </g>
</svg>
